<svg id="5b10622d-017e-4fb6-93fd-096dd1466ea2" data-name="Layer 1" xmlns="http://www.w3.org/2000/svg" width="180.98" height="96.77" viewBox="0 0 180.98 96.77"><defs><style>.\33 14793a1-e3d3-4c93-8f8c-f65e4f87d2fc{fill:#fff;}</style></defs><title>ak_logo_simple_white</title><path class="314793a1-e3d3-4c93-8f8c-f65e4f87d2fc" d="M135.8,245.7c13.8-15.52,30.94-24.51,50.85-28l0,21.92q8-.42,16.22-.45l0-22.8c1,0,2,0,3.07.09V239.2q8.56.05,16.9.54V218.86a90.21,90.21,0,0,1,45.33,26.91,249.52,249.52,0,0,1,24.37,6.5,109.24,109.24,0,0,0-52.05-44.36l36.1-51.82H256.09s-24.83,36-32.27,46.67l-1-.22V156h-16.9v44.48c-1,0-2.16-.11-3.19-.12l.06-44.29H180.19L117.1,244c-2,2.79-3.84,5.71-5.59,8.73A241.43,241.43,0,0,1,135.8,245.7Zm50.58-72.11.06,27.88a103.62,103.62,0,0,0-25.57,7.18Z" transform="translate(-111.51 -155.97)"/></svg>